<svg width="160" height="36" viewBox="0 0 160 36" fill="none" xmlns="http://www.w3.org/2000/svg">
<path d="M26.3724 6.06677C26.7519 6.12993 27.0682 6.25625 27.4478 6.3194C32.6984 7.32994 36.3676 11.3721 37.0002 16.7405C37.6328 22.6142 33.9004 28.0458 28.2069 29.4353C27.1947 29.6879 26.1826 29.8143 25.1704 29.8143C20.4258 29.8774 15.7446 29.8143 11 29.8774C11 28.6774 11 27.5406 11 26.3406C12.202 23.2458 13.2774 22.5511 16.6302 22.5511C19.5402 22.5511 22.3869 22.5511 25.2969 22.5511C27.7008 22.5511 29.6619 20.7826 29.8517 18.5089C30.0415 15.9195 28.46 13.8352 26.0561 13.4563C23.6521 13.0773 21.438 14.5931 20.8054 16.93C20.7422 17.1826 20.6789 17.4352 20.6156 17.6879C20.4891 17.6247 20.4258 17.6247 20.3626 17.5616C18.6545 15.8563 16.9465 14.151 15.2385 12.5089C14.9222 12.1931 15.0487 11.9405 15.2385 11.6247C16.8832 9.09837 19.1606 7.32994 22.0706 6.57204C22.7032 6.38256 23.3358 6.25625 23.9685 6.12993C24.8541 6.06677 25.6132 6.06677 26.3724 6.06677Z" fill="#536E96"/>
<path d="M141.318 29.2422C139.926 30.1264 138.471 30.5053 136.826 30.1895C134.359 29.7474 132.904 27.8527 132.904 25.0106C132.904 19.8316 132.904 14.7158 132.904 9.53681C132.904 8.96839 132.904 8.33681 132.904 7.76838C132.904 7.57891 133.031 7.26312 133.221 7.19996C134.676 6.82101 136.131 6.44206 137.649 6.06311C137.649 6.50522 137.649 6.82101 137.649 7.1368C137.649 12.7579 137.649 18.379 137.649 24C137.649 24.3158 137.649 24.6948 137.712 25.0106C137.902 25.7685 138.345 26.1474 139.167 26.0211C139.61 25.9579 139.863 26.0843 139.989 26.4632C140.369 27.2843 140.812 28.1053 141.255 28.9264C141.318 29.0527 141.318 29.179 141.318 29.2422Z" fill="#536E96"/>
<path d="M98.4268 6.06304C98.9961 6.18935 99.5022 6.31567 100.072 6.50515C103.108 7.51568 105.006 10.042 105.069 13.1999C105.132 16.7368 103.488 19.3894 100.451 20.5894C100.198 20.6526 100.008 20.7789 99.6287 20.9052C101.653 23.8736 103.677 26.7789 105.765 29.8737C105.006 29.8737 104.5 29.8737 103.93 29.8737C102.729 29.8737 101.59 29.8737 100.388 29.8737C99.8818 29.8737 99.5655 29.6842 99.2492 29.2421C97.6677 26.7789 96.0861 24.3158 94.5679 21.7894C94.3148 21.3473 93.9985 21.1578 93.4292 21.1578C92.9231 21.221 92.3537 21.221 91.7844 21.1578C91.2151 21.0947 90.962 21.2842 90.962 21.9157C91.0253 24.2526 90.962 26.5895 90.962 28.9263C90.962 29.5579 90.7722 29.8105 90.0764 29.8105C88.8744 29.7474 87.7357 29.8105 86.5338 29.8105C86.0277 29.8105 85.8379 29.6842 85.8379 29.1789C85.8379 22.3579 85.8379 15.5368 85.8379 8.71568C85.8379 7.38936 86.597 6.5683 87.7357 5.99988C91.4681 6.06304 94.9474 6.06304 98.4268 6.06304ZM94.4414 16.4841C95.3903 16.4841 96.2759 16.4841 97.2248 16.421C98.8064 16.2947 99.7553 15.2841 99.8185 13.642C99.8185 11.9999 98.8696 10.8631 97.2248 10.7999C95.3903 10.7367 93.4924 10.7999 91.6579 10.7367C91.2151 10.7367 91.0885 10.9262 91.0885 11.3052C91.0885 12.821 91.0885 14.3368 91.0885 15.8526C91.0885 16.3578 91.2783 16.4841 91.7211 16.4841C92.6701 16.4841 93.5557 16.4841 94.4414 16.4841Z" fill="#536E96"/>
<path d="M113.926 30.3155C109.941 30.3155 106.714 28.2312 105.386 24.8839C103.931 21.2838 104.817 17.1154 107.474 14.5891C111.839 10.4838 121.328 11.4312 122.972 19.0102C124.427 25.2628 120.189 30.3786 113.926 30.3155ZM114.053 16.6733C111.396 16.6733 109.624 18.5049 109.624 21.2839C109.624 23.9997 111.396 25.8944 113.989 25.8944C116.583 25.8944 118.354 24.0628 118.354 21.347C118.354 18.568 116.646 16.6733 114.053 16.6733Z" fill="#536E96"/>
<path d="M129.488 8.08423C129.488 8.52634 129.551 8.84213 129.551 9.22108C129.551 14.1474 129.551 19.0106 129.551 23.9369C129.551 24.2527 129.551 24.6317 129.614 24.9475C129.678 25.8317 130.184 26.2106 131.069 26.0843C131.512 26.0212 131.765 26.1475 131.892 26.5264C132.208 27.2843 132.588 28.0422 133.031 28.737C133.22 29.0527 133.157 29.3054 132.841 29.4949C131.069 30.4422 129.235 30.6949 127.337 29.7475C125.819 28.9896 125.186 27.6633 124.933 26.0843C124.807 25.5159 124.807 24.8843 124.807 24.2527C124.807 19.5159 124.807 14.8422 124.807 10.1053C124.807 9.34739 125.06 9.09476 125.756 8.90528C126.894 8.71581 128.096 8.40002 129.488 8.08423Z" fill="#536E96"/>
<path d="M57.1169 6.06304C59.1413 11.242 61.1656 16.4841 63.2532 21.6631C64.2021 24.0631 65.151 26.4631 66.1 28.8631C66.2265 29.1158 66.2897 29.4316 66.4163 29.8105C65.2776 29.8105 64.2654 29.8105 63.19 29.8105C61.1024 29.8105 61.1024 29.8105 60.3432 27.7895C60.0269 26.9684 59.7106 26.2105 59.4576 25.3894C59.3311 25.0105 59.078 24.821 58.6352 24.821C55.6619 24.821 52.6887 24.821 49.6522 24.821C49.2093 24.821 49.0196 24.9473 48.8298 25.3894C48.387 26.6526 47.8809 27.9158 47.438 29.1789C47.2483 29.621 47.0585 29.8737 46.5524 29.8105C45.0341 29.7474 43.5159 29.8105 41.8711 29.8105C41.9976 29.4947 42.0609 29.2421 42.1241 28.9895C44.8443 21.9789 47.6278 14.9683 50.348 7.95778C50.7276 7.01041 51.3602 6.44199 52.1826 5.99988C53.8906 6.06304 55.4722 6.06304 57.1169 6.06304ZM50.9174 20.0842C53.1315 20.0842 55.2824 20.0842 57.4332 20.0842C56.3578 17.1789 55.2824 14.3368 54.1437 11.3052C53.005 14.3368 51.9295 17.1789 50.9174 20.0842Z" fill="#536E96"/>
<path d="M83.5609 6.06323C83.5609 6.31587 83.6242 6.5685 83.6242 6.82113C83.6242 14.2106 83.6242 21.6001 83.6242 28.9897C83.6242 29.7476 83.4344 30.0002 82.6753 29.937C81.7264 29.8739 80.8407 29.937 79.8918 29.937C79.449 29.937 79.2592 29.8107 79.2592 29.3686C79.2592 28.8633 79.1327 28.4212 79.0694 27.916C79.0062 27.916 78.9429 27.916 78.8796 27.9791C76.3492 31.3265 71.0353 31.137 67.9988 28.0423C64.3929 24.3159 64.646 17.558 68.5049 14.2106C71.3516 11.7475 75.9696 11.6212 78.4368 14.0212C78.5001 14.0843 78.5633 14.0843 78.6899 14.1475C78.6899 13.958 78.7531 13.7685 78.7531 13.5791C78.7531 12.2527 78.8164 10.9264 78.7531 9.60009C78.6899 8.02114 79.1959 6.82113 80.7142 6.18955C81.7264 6.06323 82.612 6.06323 83.5609 6.06323ZM70.466 21.3475C70.466 21.537 70.466 21.7896 70.5292 22.0423C70.719 24.1265 72.3005 25.6423 74.3881 25.8317C76.539 26.0212 78.3735 24.8844 78.9429 22.8633C79.1327 22.1686 79.1959 21.3475 79.1327 20.6528C79.0062 18.758 77.8042 17.3054 76.0329 16.8633C72.9331 16.0422 70.466 18.0001 70.466 21.3475Z" fill="#536E96"/>
</svg>
