<svg width="38" height="38" viewBox="0 0 38 38" fill="none" xmlns="http://www.w3.org/2000/svg">
<path d="M13.0625 34.4375H24.9375" stroke="#6D737A" stroke-width="1.5" stroke-linecap="round" stroke-linejoin="round"/>
<path d="M11.682 24.789C10.2683 23.6897 9.1233 22.2831 8.33376 20.6758C7.54423 19.0684 7.13087 17.3024 7.125 15.5116C7.09532 9.06945 12.2758 3.71086 18.718 3.56242C21.2112 3.50331 23.6598 4.23069 25.7164 5.64138C27.7731 7.05208 29.3334 9.07448 30.176 11.4218C31.0187 13.769 31.1009 16.3221 30.4111 18.7187C29.7213 21.1154 28.2944 23.234 26.3328 24.7741C25.8995 25.1091 25.5485 25.5387 25.3067 26.0301C25.0648 26.5214 24.9386 27.0616 24.9375 27.6093V28.4999C24.9375 28.8149 24.8124 29.1169 24.5897 29.3396C24.367 29.5623 24.0649 29.6874 23.75 29.6874H14.25C13.9351 29.6874 13.633 29.5623 13.4103 29.3396C13.1876 29.1169 13.0625 28.8149 13.0625 28.4999V27.6093C13.0588 27.0657 12.9328 26.53 12.6938 26.0418C12.4548 25.5535 12.109 25.1254 11.682 24.789V24.789Z" stroke="#6D737A" stroke-width="1.5" stroke-linecap="round" stroke-linejoin="round"/>
<path d="M20.2023 8.43115C21.6537 8.67719 22.993 9.36765 24.0352 10.4072C25.0775 11.4468 25.7713 12.7843 26.0211 14.2351" stroke="#6D737A" stroke-width="1.5" stroke-linecap="round" stroke-linejoin="round"/>
</svg>
