<svg width="44" height="44" viewBox="0 0 44 44" fill="none" xmlns="http://www.w3.org/2000/svg">
<path d="M22 30.9375C25.797 30.9375 28.875 27.8595 28.875 24.0625C28.875 20.2655 25.797 17.1875 22 17.1875C18.203 17.1875 15.125 20.2655 15.125 24.0625C15.125 27.8595 18.203 30.9375 22 30.9375Z" stroke="#0075FD" stroke-width="1.5" stroke-linecap="round" stroke-linejoin="round"/>
<path d="M33.6875 19.9375C35.2889 19.9348 36.8688 20.3064 38.3012 21.0226C39.7336 21.7388 40.9788 22.7798 41.9375 24.0625" stroke="#0075FD" stroke-width="1.5" stroke-linecap="round" stroke-linejoin="round"/>
<path d="M2.0625 24.0625C3.02122 22.7798 4.26642 21.7388 5.69879 21.0226C7.13116 20.3064 8.71106 19.9348 10.3125 19.9375" stroke="#0075FD" stroke-width="1.5" stroke-linecap="round" stroke-linejoin="round"/>
<path d="M12.1 37.125C13.0055 35.2706 14.4136 33.7078 16.1639 32.6147C17.9142 31.5215 19.9363 30.9419 22 30.9419C24.0636 30.9419 26.0858 31.5215 27.8361 32.6147C29.5864 33.7078 30.9945 35.2706 31.9 37.125" stroke="#0075FD" stroke-width="1.5" stroke-linecap="round" stroke-linejoin="round"/>
<path d="M10.3125 19.9375C9.26863 19.9386 8.24599 19.6425 7.3641 19.084C6.4822 18.5254 5.77747 17.7274 5.33225 16.7832C4.88704 15.839 4.71972 14.7876 4.84985 13.7519C4.97998 12.7161 5.40219 11.7388 6.06714 10.9341C6.73208 10.1294 7.61231 9.5305 8.60497 9.20747C9.59763 8.88443 10.6617 8.85056 11.6729 9.10982C12.6841 9.36908 13.6006 9.91076 14.3154 10.6716C15.0302 11.4324 15.5137 12.3809 15.7094 13.4062" stroke="#0075FD" stroke-width="1.5" stroke-linecap="round" stroke-linejoin="round"/>
<path d="M28.2906 13.4062C28.4864 12.3809 28.9699 11.4324 29.6847 10.6716C30.3994 9.91076 31.316 9.36908 32.3271 9.10982C33.3383 8.85056 34.4024 8.88443 35.3951 9.20747C36.3877 9.5305 37.268 10.1294 37.9329 10.9341C38.5979 11.7388 39.0201 12.7161 39.1502 13.7519C39.2803 14.7876 39.113 15.839 38.6678 16.7832C38.2226 17.7274 37.5179 18.5254 36.636 19.084C35.7541 19.6425 34.7314 19.9386 33.6875 19.9375" stroke="#0075FD" stroke-width="1.5" stroke-linecap="round" stroke-linejoin="round"/>
</svg>
