<svg width="45" height="34" viewBox="0 0 45 34" fill="none" xmlns="http://www.w3.org/2000/svg">
<path d="M12.7225 0.191895H7.83358C3.78981 0.191895 0.500244 3.43122 0.500244 7.41322V12.2274C0.500244 16.2094 3.78981 19.4488 7.83358 19.4488H12.7225C13.5073 19.4488 14.2494 19.2949 14.959 19.0688C13.9734 24.7381 8.981 29.0772 2.94469 29.0772C1.59356 29.0772 0.500244 30.1538 0.500244 31.4843C0.500244 32.8148 1.59356 33.8914 2.94469 33.8914C12.3788 33.8914 20.0558 26.3317 20.0558 17.0417V7.41322C20.0558 3.43122 16.7662 0.191895 12.7225 0.191895ZM37.1669 0.191895H32.278C28.2343 0.191895 24.9447 3.43122 24.9447 7.41322V12.2274C24.9447 16.2094 28.2343 19.4488 32.278 19.4488H37.1669C37.9517 19.4488 38.6939 19.2949 39.4034 19.0688C38.4178 24.7381 33.4254 29.0772 27.3891 29.0772C26.038 29.0772 24.9447 30.1538 24.9447 31.4843C24.9447 32.8148 26.038 33.8914 27.3891 33.8914C36.8232 33.8914 44.5002 26.3317 44.5002 17.0417V7.41322C44.5002 3.43122 41.2107 0.191895 37.1669 0.191895Z" fill="#20B486"/>
<path d="M7.83325 0.691895H12.7229C16.4976 0.692127 19.5559 3.71509 19.5559 7.41357V17.0415C19.5559 26.0481 12.1098 33.3911 2.94458 33.3911C1.86236 33.3911 1.00024 32.531 1.00024 31.4839C1.00048 30.437 1.86251 29.5777 2.94458 29.5776C9.22512 29.5776 14.4242 25.0622 15.4514 19.1548L15.593 18.3423L14.8069 18.5923C14.1307 18.8078 13.4415 18.9487 12.7229 18.9487H7.83325C4.0585 18.9486 1.00024 15.9256 1.00024 12.2271V7.41357C1.00024 3.71505 4.0585 0.692068 7.83325 0.691895ZM32.2776 0.691895H37.1672C40.942 0.69207 44.0002 3.71505 44.0002 7.41357V17.0415C44.0002 26.0481 36.5541 33.3911 27.3889 33.3911C26.3068 33.391 25.4446 32.5309 25.4446 31.4839C25.4448 30.437 26.3069 29.5778 27.3889 29.5776C33.6694 29.5776 38.8686 25.0622 39.8958 19.1548L40.0374 18.3423L39.2512 18.5923C38.575 18.8077 37.8859 18.9487 37.1672 18.9487H32.2776C28.5029 18.9485 25.4446 15.9255 25.4446 12.2271V7.41357C25.4446 3.71509 28.5029 0.692126 32.2776 0.691895Z" stroke="black" stroke-opacity="0.1"/>
</svg>
